<svg xmlns="http://www.w3.org/2000/svg" xmlns:xlink="http://www.w3.org/1999/xlink" width="500" zoomAndPan="magnify" viewBox="0 0 375 374.999991" height="500" preserveAspectRatio="xMidYMid meet" version="1.0"><defs><g/><clipPath id="94a9aa333b"><path d="M 149 57 L 229 57 L 229 248.394531 L 149 248.394531 Z M 149 57 " clip-rule="nonzero"/></clipPath><clipPath id="bc1b4bd9ca"><path d="M 232 45 L 242.472656 45 L 242.472656 60 L 232 60 Z M 232 45 " clip-rule="nonzero"/></clipPath><clipPath id="646bd5bf04"><path d="M 175 21.144531 L 182 21.144531 L 182 37 L 175 37 Z M 175 21.144531 " clip-rule="nonzero"/></clipPath><clipPath id="ecb33f9a8b"><path d="M 132.515625 55 L 147 55 L 147 70 L 132.515625 70 Z M 132.515625 55 " clip-rule="nonzero"/></clipPath></defs><g clip-path="url(#94a9aa333b)"><path fill="#000000" d="M 167.113281 95.582031 L 198.851562 95.582031 C 199.160156 95.582031 199.457031 95.613281 199.753906 95.65625 C 200.078125 95.671875 200.402344 95.707031 200.730469 95.773438 L 214.953125 98.695312 C 214.789062 95.738281 214.496094 92.246094 213.976562 88.738281 C 212.191406 76.660156 209.128906 73.617188 208.40625 73.460938 C 206.113281 72.972656 206.453125 67.445312 207.9375 63.804688 L 205.851562 62.601562 L 201.21875 63.445312 C 200.472656 61.953125 199.550781 60.570312 198.476562 59.316406 C 198.800781 59.027344 199.203125 58.816406 199.664062 58.730469 L 205.859375 57.605469 C 206.433594 57.5 207.027344 57.601562 207.535156 57.894531 L 213.78125 61.496094 C 220.589844 64.421875 224.929688 72.792969 227.003906 86.984375 C 228.46875 96.996094 228.300781 106.507812 228.292969 106.90625 C 228.253906 108.851562 227.351562 110.683594 225.824219 111.898438 C 224.648438 112.835938 223.199219 113.332031 221.722656 113.332031 C 221.28125 113.332031 220.835938 113.285156 220.394531 113.195312 L 205.199219 110.070312 L 205.199219 238.207031 C 205.199219 243.800781 200.652344 248.332031 195.042969 248.332031 C 189.433594 248.332031 184.886719 243.800781 184.886719 238.207031 L 184.886719 164.265625 L 181.078125 164.265625 L 181.078125 238.207031 C 181.078125 243.800781 176.527344 248.332031 170.921875 248.332031 C 165.3125 248.332031 160.761719 243.800781 160.761719 238.207031 L 160.761719 174.539062 C 163.222656 172.964844 164.808594 170.167969 164.664062 167.050781 C 163.679688 145.761719 164.507812 132.195312 165.773438 123.640625 L 163.867188 123.5625 C 162.585938 132.339844 161.800781 146 162.777344 167.140625 C 162.941406 170.753906 160.136719 173.820312 156.511719 173.984375 C 156.410156 173.992188 156.308594 173.992188 156.207031 173.992188 C 152.714844 173.992188 149.808594 171.253906 149.644531 167.742188 C 148.789062 149.175781 149.113281 134.320312 150.636719 123.019531 C 152.3125 110.570312 155.445312 102.433594 160.0625 98.441406 C 162.347656 96.464844 164.578125 95.816406 166.222656 95.652344 C 166.511719 95.613281 166.808594 95.582031 167.113281 95.582031 Z M 167.113281 95.582031 " fill-opacity="1" fill-rule="nonzero"/></g><path fill="#000000" d="M 201.46875 72.488281 C 201.46875 82.664062 193.191406 90.917969 182.984375 90.917969 C 172.773438 90.917969 164.5 82.664062 164.5 72.488281 C 164.5 62.308594 172.773438 54.058594 182.984375 54.058594 C 193.191406 54.058594 201.46875 62.308594 201.46875 72.488281 Z M 178.671875 68.902344 C 177.171875 68.902344 175.957031 70.113281 175.957031 71.609375 C 175.957031 73.101562 177.171875 74.3125 178.671875 74.3125 C 180.167969 74.3125 181.382812 73.101562 181.382812 71.609375 C 181.382812 70.113281 180.167969 68.902344 178.671875 68.902344 Z M 191.515625 68.902344 C 190.015625 68.902344 188.800781 70.113281 188.800781 71.609375 C 188.800781 73.101562 190.015625 74.3125 191.515625 74.3125 C 193.011719 74.3125 194.226562 73.101562 194.226562 71.609375 C 194.226562 70.113281 193.011719 68.902344 191.515625 68.902344 Z M 191.515625 68.902344 " fill-opacity="1" fill-rule="nonzero"/><path fill="#000000" d="M 199.105469 50.320312 C 201.425781 51.015625 202.546875 53.164062 202.59375 53.253906 C 202.796875 53.65625 202.636719 54.144531 202.234375 54.351562 C 202.207031 54.367188 202.179688 54.378906 202.152344 54.390625 C 201.765625 54.535156 201.324219 54.375 201.128906 54 C 201.121094 53.984375 200.261719 52.367188 198.617188 51.882812 C 197.566406 51.570312 196.378906 51.78125 195.09375 52.507812 C 194.703125 52.730469 194.199219 52.59375 193.976562 52.199219 C 193.753906 51.804688 193.890625 51.304688 194.285156 51.082031 C 195.984375 50.125 197.605469 49.867188 199.105469 50.320312 Z M 199.105469 50.320312 " fill-opacity="1" fill-rule="nonzero"/><path fill="#000000" d="M 192.546875 48.867188 C 192.308594 48.484375 192.429688 47.980469 192.816406 47.742188 C 195.285156 46.21875 197.675781 45.734375 199.917969 46.292969 C 203.328125 47.148438 205.09375 50.132812 205.167969 50.261719 C 205.394531 50.652344 205.261719 51.148438 204.871094 51.378906 C 204.832031 51.398438 204.789062 51.417969 204.75 51.433594 C 204.382812 51.574219 203.953125 51.433594 203.746094 51.082031 C 203.734375 51.058594 202.234375 48.554688 199.5 47.878906 C 197.710938 47.4375 195.75 47.855469 193.679688 49.136719 C 193.292969 49.371094 192.785156 49.253906 192.546875 48.867188 Z M 192.546875 48.867188 " fill-opacity="1" fill-rule="nonzero"/><g clip-path="url(#bc1b4bd9ca)"><path fill="#000000" d="M 237.074219 49.335938 L 238.734375 46.449219 C 239.195312 45.644531 239.957031 45.285156 241.210938 46 C 242.433594 46.703125 242.492188 47.5625 242.074219 48.292969 L 240.386719 51.230469 L 234.878906 59.484375 L 232.710938 58.246094 Z M 237.074219 49.335938 " fill-opacity="1" fill-rule="nonzero"/></g><path fill="#000000" d="M 230.863281 63.996094 C 229.636719 63.292969 229.441406 62.007812 230.023438 60.992188 C 230.621094 59.953125 231.816406 59.5625 233.09375 60.292969 C 234.242188 60.949219 234.515625 62.28125 233.960938 63.242188 C 233.363281 64.285156 232.191406 64.753906 230.863281 63.996094 Z M 230.863281 63.996094 " fill-opacity="1" fill-rule="nonzero"/><path fill="#000000" d="M 228.210938 53.183594 L 226.949219 54.949219 L 224.210938 53.386719 L 224.929688 52.136719 C 225.886719 50.472656 225.757812 49.914062 224.820312 47.929688 C 223.679688 45.515625 223.671875 43.78125 224.792969 41.832031 C 225.824219 40.039062 228.273438 38.605469 231.820312 40.632812 C 233.621094 41.664062 235.210938 43.296875 235.996094 44.402344 L 233.828125 48.171875 L 230.867188 46.753906 L 231.734375 45.246094 C 231.941406 44.882812 231.933594 44.601562 231.726562 44.414062 C 231.449219 44.117188 231.03125 43.878906 230.585938 43.625 C 229.570312 43.042969 228.632812 43.164062 228.035156 44.207031 C 227.257812 45.558594 227.777344 46.40625 228.417969 47.878906 C 229.324219 49.917969 229.675781 51.117188 228.210938 53.183594 Z M 228.210938 53.183594 " fill-opacity="1" fill-rule="nonzero"/><path fill="#000000" d="M 222.53125 59.195312 C 221.308594 58.496094 221.125 57.183594 221.679688 56.222656 C 222.292969 55.15625 223.472656 54.792969 224.722656 55.507812 C 225.871094 56.164062 226.175781 57.445312 225.589844 58.457031 C 224.992188 59.5 223.8125 59.929688 222.53125 59.195312 Z M 222.53125 59.195312 " fill-opacity="1" fill-rule="nonzero"/><path fill="#000000" d="M 181.734375 41.792969 C 180.355469 42.09375 179.34375 41.269531 179.09375 40.125 C 178.839844 38.953125 179.460938 37.867188 180.902344 37.554688 C 182.195312 37.277344 183.292969 38.082031 183.53125 39.164062 C 183.785156 40.335938 183.234375 41.46875 181.734375 41.792969 Z M 181.734375 41.792969 " fill-opacity="1" fill-rule="nonzero"/><g clip-path="url(#646bd5bf04)"><path fill="#000000" d="M 176.484375 26.765625 L 175.773438 23.515625 C 175.578125 22.609375 175.898438 21.832031 177.308594 21.527344 C 178.691406 21.226562 179.3125 21.828125 179.492188 22.648438 L 180.214844 25.957031 L 181.679688 35.761719 L 179.242188 36.292969 Z M 176.484375 26.765625 " fill-opacity="1" fill-rule="nonzero"/></g><path fill="#000000" d="M 172.328125 43.804688 C 170.949219 44.105469 169.933594 43.25 169.695312 42.167969 C 169.433594 40.96875 170.066406 39.910156 171.472656 39.601562 C 172.765625 39.320312 173.851562 40.070312 174.101562 41.210938 C 174.359375 42.382812 173.769531 43.492188 172.328125 43.804688 Z M 172.328125 43.804688 " fill-opacity="1" fill-rule="nonzero"/><path fill="#000000" d="M 169.773438 27.304688 C 169.683594 26.894531 169.484375 26.691406 169.207031 26.691406 C 168.800781 26.65625 168.332031 26.757812 167.832031 26.867188 C 166.6875 27.113281 166.074219 27.832031 166.328125 29.003906 C 166.660156 30.527344 167.617188 30.808594 169.082031 31.472656 C 171.125 32.378906 172.195312 33.035156 172.496094 35.546875 L 172.75 37.699219 L 169.667969 38.371094 L 169.359375 36.964844 C 168.949219 35.089844 168.480469 34.761719 166.449219 33.914062 C 163.976562 32.886719 162.804688 31.609375 162.324219 29.410156 C 161.882812 27.390625 162.742188 24.691406 166.734375 23.824219 C 168.761719 23.382812 171.042969 23.53125 172.367188 23.828125 L 173.292969 28.074219 L 170.144531 29.003906 Z M 169.773438 27.304688 " fill-opacity="1" fill-rule="nonzero"/><path fill="#000000" d="M 145.738281 56.46875 L 143.828125 53.742188 C 143.292969 52.980469 143.292969 52.140625 144.476562 51.316406 C 145.632812 50.511719 146.441406 50.824219 146.925781 51.515625 L 148.867188 54.289062 L 154.007812 62.777344 L 151.960938 64.199219 Z M 145.738281 56.46875 " fill-opacity="1" fill-rule="nonzero"/><path fill="#000000" d="M 156.386719 68.320312 C 155.230469 69.128906 153.976562 68.757812 153.304688 67.796875 C 152.617188 66.8125 152.773438 65.570312 153.984375 64.730469 C 155.066406 63.976562 156.390625 64.296875 157.027344 65.207031 C 157.71875 66.1875 157.644531 67.445312 156.386719 68.320312 Z M 156.386719 68.320312 " fill-opacity="1" fill-rule="nonzero"/><path fill="#000000" d="M 148.484375 73.789062 C 147.324219 74.59375 146.058594 74.199219 145.421875 73.289062 C 144.714844 72.28125 144.890625 71.0625 146.070312 70.238281 C 147.15625 69.484375 148.445312 69.757812 149.117188 70.714844 C 149.808594 71.699219 149.691406 72.945312 148.484375 73.789062 Z M 148.484375 73.789062 " fill-opacity="1" fill-rule="nonzero"/><g clip-path="url(#ecb33f9a8b)"><path fill="#000000" d="M 135.605469 57.496094 C 137.304688 56.308594 139.464844 55.574219 140.804688 55.335938 L 143.300781 58.898438 L 140.75 60.964844 L 139.753906 59.542969 C 139.511719 59.199219 139.25 59.085938 138.996094 59.191406 C 138.605469 59.316406 138.210938 59.589844 137.792969 59.882812 C 136.832031 60.550781 136.539062 61.449219 137.230469 62.429688 C 138.125 63.710938 139.113281 63.605469 140.726562 63.652344 C 142.960938 63.703125 144.199219 63.902344 145.449219 66.101562 L 146.515625 67.992188 L 143.925781 69.796875 L 143.101562 68.617188 C 142 67.042969 141.4375 66.921875 139.238281 66.917969 C 136.558594 66.917969 134.984375 66.1875 133.691406 64.34375 C 132.503906 62.648438 132.253906 59.828125 135.605469 57.496094 Z M 135.605469 57.496094 " fill-opacity="1" fill-rule="nonzero"/></g><g fill="#000000" fill-opacity="1"><g transform="translate(52.031817, 287.52964)"><g><path d="M 15.90625 -6.171875 C 15.90625 -4.160156 15.179688 -2.578125 13.734375 -1.421875 C 12.296875 -0.273438 10.289062 0.296875 7.71875 0.296875 C 5.34375 0.296875 3.242188 -0.144531 1.421875 -1.03125 L 1.421875 -5.40625 C 2.921875 -4.738281 4.191406 -4.265625 5.234375 -3.984375 C 6.273438 -3.710938 7.222656 -3.578125 8.078125 -3.578125 C 9.109375 -3.578125 9.898438 -3.773438 10.453125 -4.171875 C 11.003906 -4.566406 11.28125 -5.15625 11.28125 -5.9375 C 11.28125 -6.375 11.160156 -6.757812 10.921875 -7.09375 C 10.679688 -7.4375 10.320312 -7.765625 9.84375 -8.078125 C 9.375 -8.390625 8.414062 -8.890625 6.96875 -9.578125 C 5.613281 -10.222656 4.597656 -10.835938 3.921875 -11.421875 C 3.242188 -12.003906 2.703125 -12.6875 2.296875 -13.46875 C 1.890625 -14.25 1.6875 -15.160156 1.6875 -16.203125 C 1.6875 -18.171875 2.351562 -19.71875 3.6875 -20.84375 C 5.019531 -21.96875 6.859375 -22.53125 9.203125 -22.53125 C 10.359375 -22.53125 11.457031 -22.390625 12.5 -22.109375 C 13.550781 -21.835938 14.648438 -21.457031 15.796875 -20.96875 L 14.28125 -17.296875 C 13.09375 -17.785156 12.109375 -18.125 11.328125 -18.3125 C 10.554688 -18.507812 9.796875 -18.609375 9.046875 -18.609375 C 8.160156 -18.609375 7.476562 -18.398438 7 -17.984375 C 6.519531 -17.566406 6.28125 -17.023438 6.28125 -16.359375 C 6.28125 -15.941406 6.375 -15.578125 6.5625 -15.265625 C 6.757812 -14.960938 7.066406 -14.664062 7.484375 -14.375 C 7.910156 -14.082031 8.910156 -13.566406 10.484375 -12.828125 C 12.554688 -11.828125 13.976562 -10.828125 14.75 -9.828125 C 15.519531 -8.835938 15.90625 -7.617188 15.90625 -6.171875 Z M 15.90625 -6.171875 "/></g></g></g><g fill="#000000" fill-opacity="1"><g transform="translate(69.164915, 287.52964)"><g><path d="M 9.46875 -14 C 8.476562 -14 7.703125 -13.6875 7.140625 -13.0625 C 6.585938 -12.445312 6.273438 -11.566406 6.203125 -10.421875 L 12.703125 -10.421875 C 12.679688 -11.566406 12.378906 -12.445312 11.796875 -13.0625 C 11.222656 -13.6875 10.445312 -14 9.46875 -14 Z M 10.109375 0.296875 C 7.378906 0.296875 5.242188 -0.453125 3.703125 -1.953125 C 2.160156 -3.460938 1.390625 -5.601562 1.390625 -8.375 C 1.390625 -11.21875 2.101562 -13.414062 3.53125 -14.96875 C 4.957031 -16.519531 6.925781 -17.296875 9.4375 -17.296875 C 11.832031 -17.296875 13.695312 -16.613281 15.03125 -15.25 C 16.375 -13.882812 17.046875 -11.992188 17.046875 -9.578125 L 17.046875 -7.34375 L 6.09375 -7.34375 C 6.144531 -6.019531 6.535156 -4.988281 7.265625 -4.25 C 7.992188 -3.507812 9.015625 -3.140625 10.328125 -3.140625 C 11.347656 -3.140625 12.3125 -3.242188 13.21875 -3.453125 C 14.132812 -3.671875 15.09375 -4.015625 16.09375 -4.484375 L 16.09375 -0.890625 C 15.28125 -0.484375 14.410156 -0.1875 13.484375 0 C 12.566406 0.195312 11.441406 0.296875 10.109375 0.296875 Z M 10.109375 0.296875 "/></g></g></g><g fill="#000000" fill-opacity="1"><g transform="translate(87.543505, 287.52964)"><g><path d="M 14.46875 0 L 13.84375 -2.171875 L 13.59375 -2.171875 C 13.09375 -1.378906 12.382812 -0.769531 11.46875 -0.34375 C 10.5625 0.0820312 9.53125 0.296875 8.375 0.296875 C 6.375 0.296875 4.867188 -0.234375 3.859375 -1.296875 C 2.847656 -2.367188 2.34375 -3.90625 2.34375 -5.90625 L 2.34375 -16.984375 L 6.96875 -16.984375 L 6.96875 -7.0625 C 6.96875 -5.832031 7.1875 -4.910156 7.625 -4.296875 C 8.0625 -3.691406 8.753906 -3.390625 9.703125 -3.390625 C 11.003906 -3.390625 11.941406 -3.820312 12.515625 -4.6875 C 13.085938 -5.550781 13.375 -6.988281 13.375 -9 L 13.375 -16.984375 L 18.015625 -16.984375 L 18.015625 0 Z M 14.46875 0 "/></g></g></g><g fill="#000000" fill-opacity="1"><g transform="translate(107.987788, 287.52964)"><g/></g></g><g fill="#000000" fill-opacity="1"><g transform="translate(116.068292, 287.52964)"><g><path d="M 9.328125 0.296875 C 4.035156 0.296875 1.390625 -2.601562 1.390625 -8.40625 C 1.390625 -11.289062 2.109375 -13.492188 3.546875 -15.015625 C 4.992188 -16.535156 7.054688 -17.296875 9.734375 -17.296875 C 11.703125 -17.296875 13.460938 -16.910156 15.015625 -16.140625 L 13.65625 -12.5625 C 12.925781 -12.851562 12.242188 -13.09375 11.609375 -13.28125 C 10.984375 -13.46875 10.359375 -13.5625 9.734375 -13.5625 C 7.328125 -13.5625 6.125 -11.851562 6.125 -8.4375 C 6.125 -5.113281 7.328125 -3.453125 9.734375 -3.453125 C 10.628906 -3.453125 11.457031 -3.566406 12.21875 -3.796875 C 12.976562 -4.035156 13.734375 -4.410156 14.484375 -4.921875 L 14.484375 -0.953125 C 13.742188 -0.484375 12.988281 -0.160156 12.21875 0.015625 C 11.457031 0.203125 10.492188 0.296875 9.328125 0.296875 Z M 9.328125 0.296875 "/></g></g></g><g fill="#000000" fill-opacity="1"><g transform="translate(132.062227, 287.52964)"><g><path d="M 13.21875 0 L 12.3125 -2.3125 L 12.203125 -2.3125 C 11.421875 -1.320312 10.613281 -0.640625 9.78125 -0.265625 C 8.957031 0.109375 7.882812 0.296875 6.5625 0.296875 C 4.925781 0.296875 3.640625 -0.164062 2.703125 -1.09375 C 1.773438 -2.019531 1.3125 -3.347656 1.3125 -5.078125 C 1.3125 -6.878906 1.941406 -8.207031 3.203125 -9.0625 C 4.460938 -9.914062 6.363281 -10.390625 8.90625 -10.484375 L 11.84375 -10.578125 L 11.84375 -11.3125 C 11.84375 -13.039062 10.960938 -13.90625 9.203125 -13.90625 C 7.847656 -13.90625 6.253906 -13.492188 4.421875 -12.671875 L 2.890625 -15.796875 C 4.835938 -16.816406 7.003906 -17.328125 9.390625 -17.328125 C 11.671875 -17.328125 13.414062 -16.832031 14.625 -15.84375 C 15.84375 -14.851562 16.453125 -13.34375 16.453125 -11.3125 L 16.453125 0 Z M 11.84375 -7.875 L 10.0625 -7.8125 C 8.707031 -7.769531 7.703125 -7.523438 7.046875 -7.078125 C 6.390625 -6.628906 6.0625 -5.953125 6.0625 -5.046875 C 6.0625 -3.734375 6.8125 -3.078125 8.3125 -3.078125 C 9.382812 -3.078125 10.238281 -3.382812 10.875 -4 C 11.519531 -4.625 11.84375 -5.445312 11.84375 -6.46875 Z M 11.84375 -7.875 "/></g></g></g><g fill="#000000" fill-opacity="1"><g transform="translate(150.850922, 287.52964)"><g><path d="M 11.90625 -17.296875 C 12.53125 -17.296875 13.050781 -17.253906 13.46875 -17.171875 L 13.125 -12.828125 C 12.75 -12.921875 12.289062 -12.96875 11.75 -12.96875 C 10.28125 -12.96875 9.128906 -12.585938 8.296875 -11.828125 C 7.472656 -11.066406 7.0625 -10.003906 7.0625 -8.640625 L 7.0625 0 L 2.4375 0 L 2.4375 -16.984375 L 5.9375 -16.984375 L 6.625 -14.125 L 6.84375 -14.125 C 7.375 -15.082031 8.085938 -15.847656 8.984375 -16.421875 C 9.878906 -17.003906 10.851562 -17.296875 11.90625 -17.296875 Z M 11.90625 -17.296875 "/></g></g></g><g fill="#000000" fill-opacity="1"><g transform="translate(164.976615, 287.52964)"><g><path d="M 11.90625 -17.296875 C 12.53125 -17.296875 13.050781 -17.253906 13.46875 -17.171875 L 13.125 -12.828125 C 12.75 -12.921875 12.289062 -12.96875 11.75 -12.96875 C 10.28125 -12.96875 9.128906 -12.585938 8.296875 -11.828125 C 7.472656 -11.066406 7.0625 -10.003906 7.0625 -8.640625 L 7.0625 0 L 2.4375 0 L 2.4375 -16.984375 L 5.9375 -16.984375 L 6.625 -14.125 L 6.84375 -14.125 C 7.375 -15.082031 8.085938 -15.847656 8.984375 -16.421875 C 9.878906 -17.003906 10.851562 -17.296875 11.90625 -17.296875 Z M 11.90625 -17.296875 "/></g></g></g><g fill="#000000" fill-opacity="1"><g transform="translate(179.102308, 287.52964)"><g><path d="M 2.234375 -21.375 C 2.234375 -22.882812 3.070312 -23.640625 4.75 -23.640625 C 6.4375 -23.640625 7.28125 -22.882812 7.28125 -21.375 C 7.28125 -20.65625 7.066406 -20.09375 6.640625 -19.6875 C 6.222656 -19.289062 5.59375 -19.09375 4.75 -19.09375 C 3.070312 -19.09375 2.234375 -19.851562 2.234375 -21.375 Z M 7.0625 0 L 2.4375 0 L 2.4375 -16.984375 L 7.0625 -16.984375 Z M 7.0625 0 "/></g></g></g><g fill="#000000" fill-opacity="1"><g transform="translate(188.595386, 287.52964)"><g><path d="M 18.109375 0 L 13.46875 0 L 13.46875 -9.921875 C 13.46875 -11.140625 13.25 -12.054688 12.8125 -12.671875 C 12.382812 -13.285156 11.691406 -13.59375 10.734375 -13.59375 C 9.441406 -13.59375 8.503906 -13.160156 7.921875 -12.296875 C 7.347656 -11.429688 7.0625 -9.992188 7.0625 -7.984375 L 7.0625 0 L 2.4375 0 L 2.4375 -16.984375 L 5.96875 -16.984375 L 6.59375 -14.8125 L 6.84375 -14.8125 C 7.363281 -15.632812 8.078125 -16.253906 8.984375 -16.671875 C 9.890625 -17.085938 10.921875 -17.296875 12.078125 -17.296875 C 14.046875 -17.296875 15.539062 -16.757812 16.5625 -15.6875 C 17.59375 -14.625 18.109375 -13.085938 18.109375 -11.078125 Z M 18.109375 0 "/></g></g></g><g fill="#000000" fill-opacity="1"><g transform="translate(209.039669, 287.52964)"><g><path d="M 18.109375 0 L 13.46875 0 L 13.46875 -9.921875 C 13.46875 -12.367188 12.554688 -13.59375 10.734375 -13.59375 C 9.441406 -13.59375 8.503906 -13.148438 7.921875 -12.265625 C 7.347656 -11.390625 7.0625 -9.960938 7.0625 -7.984375 L 7.0625 0 L 2.4375 0 L 2.4375 -23.640625 L 7.0625 -23.640625 L 7.0625 -18.828125 C 7.0625 -18.453125 7.023438 -17.566406 6.953125 -16.171875 L 6.84375 -14.8125 L 7.09375 -14.8125 C 8.125 -16.46875 9.765625 -17.296875 12.015625 -17.296875 C 14.015625 -17.296875 15.53125 -16.757812 16.5625 -15.6875 C 17.59375 -14.613281 18.109375 -13.078125 18.109375 -11.078125 Z M 18.109375 0 "/></g></g></g><g fill="#000000" fill-opacity="1"><g transform="translate(229.483943, 287.52964)"><g><path d="M 6.125 -8.515625 C 6.125 -6.835938 6.398438 -5.566406 6.953125 -4.703125 C 7.503906 -3.847656 8.398438 -3.421875 9.640625 -3.421875 C 10.878906 -3.421875 11.769531 -3.847656 12.3125 -4.703125 C 12.851562 -5.554688 13.125 -6.828125 13.125 -8.515625 C 13.125 -10.203125 12.847656 -11.460938 12.296875 -12.296875 C 11.753906 -13.140625 10.859375 -13.5625 9.609375 -13.5625 C 8.378906 -13.5625 7.488281 -13.144531 6.9375 -12.3125 C 6.394531 -11.476562 6.125 -10.210938 6.125 -8.515625 Z M 17.859375 -8.515625 C 17.859375 -5.753906 17.128906 -3.59375 15.671875 -2.03125 C 14.210938 -0.476562 12.179688 0.296875 9.578125 0.296875 C 7.953125 0.296875 6.515625 -0.0546875 5.265625 -0.765625 C 4.023438 -1.484375 3.066406 -2.507812 2.390625 -3.84375 C 1.722656 -5.175781 1.390625 -6.734375 1.390625 -8.515625 C 1.390625 -11.296875 2.113281 -13.453125 3.5625 -14.984375 C 5.007812 -16.523438 7.046875 -17.296875 9.671875 -17.296875 C 11.304688 -17.296875 12.742188 -16.941406 13.984375 -16.234375 C 15.234375 -15.523438 16.191406 -14.503906 16.859375 -13.171875 C 17.523438 -11.847656 17.859375 -10.296875 17.859375 -8.515625 Z M 17.859375 -8.515625 "/></g></g></g><g fill="#000000" fill-opacity="1"><g transform="translate(248.74349, 287.52964)"><g/></g></g><g fill="#000000" fill-opacity="1"><g transform="translate(256.823994, 287.52964)"><g><path d="M 9.46875 -14 C 8.476562 -14 7.703125 -13.6875 7.140625 -13.0625 C 6.585938 -12.445312 6.273438 -11.566406 6.203125 -10.421875 L 12.703125 -10.421875 C 12.679688 -11.566406 12.378906 -12.445312 11.796875 -13.0625 C 11.222656 -13.6875 10.445312 -14 9.46875 -14 Z M 10.109375 0.296875 C 7.378906 0.296875 5.242188 -0.453125 3.703125 -1.953125 C 2.160156 -3.460938 1.390625 -5.601562 1.390625 -8.375 C 1.390625 -11.21875 2.101562 -13.414062 3.53125 -14.96875 C 4.957031 -16.519531 6.925781 -17.296875 9.4375 -17.296875 C 11.832031 -17.296875 13.695312 -16.613281 15.03125 -15.25 C 16.375 -13.882812 17.046875 -11.992188 17.046875 -9.578125 L 17.046875 -7.34375 L 6.09375 -7.34375 C 6.144531 -6.019531 6.535156 -4.988281 7.265625 -4.25 C 7.992188 -3.507812 9.015625 -3.140625 10.328125 -3.140625 C 11.347656 -3.140625 12.3125 -3.242188 13.21875 -3.453125 C 14.132812 -3.671875 15.09375 -4.015625 16.09375 -4.484375 L 16.09375 -0.890625 C 15.28125 -0.484375 14.410156 -0.1875 13.484375 0 C 12.566406 0.195312 11.441406 0.296875 10.109375 0.296875 Z M 10.109375 0.296875 "/></g></g></g><g fill="#000000" fill-opacity="1"><g transform="translate(275.202575, 287.52964)"><g><path d="M 14.28125 -5.046875 C 14.28125 -3.304688 13.671875 -1.976562 12.453125 -1.0625 C 11.242188 -0.15625 9.4375 0.296875 7.03125 0.296875 C 5.800781 0.296875 4.75 0.210938 3.875 0.046875 C 3 -0.117188 2.179688 -0.363281 1.421875 -0.6875 L 1.421875 -4.515625 C 2.285156 -4.109375 3.253906 -3.765625 4.328125 -3.484375 C 5.410156 -3.210938 6.363281 -3.078125 7.1875 -3.078125 C 8.863281 -3.078125 9.703125 -3.566406 9.703125 -4.546875 C 9.703125 -4.910156 9.585938 -5.203125 9.359375 -5.421875 C 9.140625 -5.648438 8.753906 -5.910156 8.203125 -6.203125 C 7.660156 -6.492188 6.9375 -6.832031 6.03125 -7.21875 C 4.726562 -7.757812 3.769531 -8.265625 3.15625 -8.734375 C 2.539062 -9.203125 2.09375 -9.734375 1.8125 -10.328125 C 1.53125 -10.929688 1.390625 -11.675781 1.390625 -12.5625 C 1.390625 -14.070312 1.972656 -15.238281 3.140625 -16.0625 C 4.316406 -16.882812 5.976562 -17.296875 8.125 -17.296875 C 10.164062 -17.296875 12.15625 -16.851562 14.09375 -15.96875 L 12.703125 -12.625 C 11.847656 -12.988281 11.050781 -13.285156 10.3125 -13.515625 C 9.570312 -13.753906 8.816406 -13.875 8.046875 -13.875 C 6.679688 -13.875 6 -13.503906 6 -12.765625 C 6 -12.347656 6.21875 -11.984375 6.65625 -11.671875 C 7.101562 -11.367188 8.066406 -10.921875 9.546875 -10.328125 C 10.878906 -9.796875 11.851562 -9.296875 12.46875 -8.828125 C 13.082031 -8.359375 13.535156 -7.816406 13.828125 -7.203125 C 14.128906 -6.597656 14.28125 -5.878906 14.28125 -5.046875 Z M 14.28125 -5.046875 "/></g></g></g><g fill="#000000" fill-opacity="1"><g transform="translate(290.664885, 287.52964)"><g><path d="M 9.578125 -3.390625 C 10.390625 -3.390625 11.363281 -3.566406 12.5 -3.921875 L 12.5 -0.46875 C 11.34375 0.0390625 9.925781 0.296875 8.25 0.296875 C 6.394531 0.296875 5.046875 -0.164062 4.203125 -1.09375 C 3.359375 -2.03125 2.9375 -3.4375 2.9375 -5.3125 L 2.9375 -13.5 L 0.71875 -13.5 L 0.71875 -15.46875 L 3.265625 -17.015625 L 4.609375 -20.59375 L 7.5625 -20.59375 L 7.5625 -16.984375 L 12.3125 -16.984375 L 12.3125 -13.5 L 7.5625 -13.5 L 7.5625 -5.3125 C 7.5625 -4.65625 7.742188 -4.171875 8.109375 -3.859375 C 8.484375 -3.546875 8.972656 -3.390625 9.578125 -3.390625 Z M 9.578125 -3.390625 "/></g></g></g><g fill="#000000" fill-opacity="1"><g transform="translate(304.167846, 287.52964)"><g><path d="M 13.21875 0 L 12.3125 -2.3125 L 12.203125 -2.3125 C 11.421875 -1.320312 10.613281 -0.640625 9.78125 -0.265625 C 8.957031 0.109375 7.882812 0.296875 6.5625 0.296875 C 4.925781 0.296875 3.640625 -0.164062 2.703125 -1.09375 C 1.773438 -2.019531 1.3125 -3.347656 1.3125 -5.078125 C 1.3125 -6.878906 1.941406 -8.207031 3.203125 -9.0625 C 4.460938 -9.914062 6.363281 -10.390625 8.90625 -10.484375 L 11.84375 -10.578125 L 11.84375 -11.3125 C 11.84375 -13.039062 10.960938 -13.90625 9.203125 -13.90625 C 7.847656 -13.90625 6.253906 -13.492188 4.421875 -12.671875 L 2.890625 -15.796875 C 4.835938 -16.816406 7.003906 -17.328125 9.390625 -17.328125 C 11.671875 -17.328125 13.414062 -16.832031 14.625 -15.84375 C 15.84375 -14.851562 16.453125 -13.34375 16.453125 -11.3125 L 16.453125 0 Z M 11.84375 -7.875 L 10.0625 -7.8125 C 8.707031 -7.769531 7.703125 -7.523438 7.046875 -7.078125 C 6.390625 -6.628906 6.0625 -5.953125 6.0625 -5.046875 C 6.0625 -3.734375 6.8125 -3.078125 8.3125 -3.078125 C 9.382812 -3.078125 10.238281 -3.382812 10.875 -4 C 11.519531 -4.625 11.84375 -5.445312 11.84375 -6.46875 Z M 6.703125 -18.84375 L 6.703125 -19.265625 C 8.441406 -21.285156 9.628906 -22.804688 10.265625 -23.828125 L 15.46875 -23.828125 L 15.46875 -23.515625 C 14.9375 -22.984375 14.035156 -22.195312 12.765625 -21.15625 C 11.492188 -20.125 10.5 -19.351562 9.78125 -18.84375 Z M 6.703125 -18.84375 "/></g></g></g><g fill="#000000" fill-opacity="1"><g transform="translate(147.284744, 330.694683)"><g><path d="M 6.46875 0 L 0 -16.984375 L 4.84375 -16.984375 L 8.125 -7.3125 C 8.488281 -6.082031 8.71875 -4.921875 8.8125 -3.828125 L 8.90625 -3.828125 C 8.957031 -4.796875 9.179688 -5.957031 9.578125 -7.3125 L 12.84375 -16.984375 L 17.703125 -16.984375 L 11.21875 0 Z M 6.46875 0 "/></g></g></g><g fill="#000000" fill-opacity="1"><g transform="translate(164.979838, 330.694683)"><g><path d="M 13.21875 0 L 12.3125 -2.3125 L 12.203125 -2.3125 C 11.421875 -1.320312 10.613281 -0.640625 9.78125 -0.265625 C 8.957031 0.109375 7.882812 0.296875 6.5625 0.296875 C 4.925781 0.296875 3.640625 -0.164062 2.703125 -1.09375 C 1.773438 -2.019531 1.3125 -3.347656 1.3125 -5.078125 C 1.3125 -6.878906 1.941406 -8.207031 3.203125 -9.0625 C 4.460938 -9.914062 6.363281 -10.390625 8.90625 -10.484375 L 11.84375 -10.578125 L 11.84375 -11.3125 C 11.84375 -13.039062 10.960938 -13.90625 9.203125 -13.90625 C 7.847656 -13.90625 6.253906 -13.492188 4.421875 -12.671875 L 2.890625 -15.796875 C 4.835938 -16.816406 7.003906 -17.328125 9.390625 -17.328125 C 11.671875 -17.328125 13.414062 -16.832031 14.625 -15.84375 C 15.84375 -14.851562 16.453125 -13.34375 16.453125 -11.3125 L 16.453125 0 Z M 11.84375 -7.875 L 10.0625 -7.8125 C 8.707031 -7.769531 7.703125 -7.523438 7.046875 -7.078125 C 6.390625 -6.628906 6.0625 -5.953125 6.0625 -5.046875 C 6.0625 -3.734375 6.8125 -3.078125 8.3125 -3.078125 C 9.382812 -3.078125 10.238281 -3.382812 10.875 -4 C 11.519531 -4.625 11.84375 -5.445312 11.84375 -6.46875 Z M 11.84375 -7.875 "/></g></g></g><g fill="#000000" fill-opacity="1"><g transform="translate(183.768533, 330.694683)"><g><path d="M 14.25 0 L 0.828125 0 L 0.828125 -2.734375 L 8.703125 -13.4375 L 1.3125 -13.4375 L 1.3125 -16.984375 L 13.96875 -16.984375 L 13.96875 -13.96875 L 6.3125 -3.546875 L 14.25 -3.546875 Z M 14.25 0 "/></g></g></g><g fill="#000000" fill-opacity="1"><g transform="translate(198.942266, 330.694683)"><g><path d="M 2.234375 -21.375 C 2.234375 -22.882812 3.070312 -23.640625 4.75 -23.640625 C 6.4375 -23.640625 7.28125 -22.882812 7.28125 -21.375 C 7.28125 -20.65625 7.066406 -20.09375 6.640625 -19.6875 C 6.222656 -19.289062 5.59375 -19.09375 4.75 -19.09375 C 3.070312 -19.09375 2.234375 -19.851562 2.234375 -21.375 Z M 7.0625 0 L 2.4375 0 L 2.4375 -16.984375 L 7.0625 -16.984375 Z M 7.0625 0 "/></g></g></g><g fill="#000000" fill-opacity="1"><g transform="translate(208.435344, 330.694683)"><g><path d="M 6.125 -8.515625 C 6.125 -6.835938 6.398438 -5.566406 6.953125 -4.703125 C 7.503906 -3.847656 8.398438 -3.421875 9.640625 -3.421875 C 10.878906 -3.421875 11.769531 -3.847656 12.3125 -4.703125 C 12.851562 -5.554688 13.125 -6.828125 13.125 -8.515625 C 13.125 -10.203125 12.847656 -11.460938 12.296875 -12.296875 C 11.753906 -13.140625 10.859375 -13.5625 9.609375 -13.5625 C 8.378906 -13.5625 7.488281 -13.144531 6.9375 -12.3125 C 6.394531 -11.476562 6.125 -10.210938 6.125 -8.515625 Z M 17.859375 -8.515625 C 17.859375 -5.753906 17.128906 -3.59375 15.671875 -2.03125 C 14.210938 -0.476562 12.179688 0.296875 9.578125 0.296875 C 7.953125 0.296875 6.515625 -0.0546875 5.265625 -0.765625 C 4.023438 -1.484375 3.066406 -2.507812 2.390625 -3.84375 C 1.722656 -5.175781 1.390625 -6.734375 1.390625 -8.515625 C 1.390625 -11.296875 2.113281 -13.453125 3.5625 -14.984375 C 5.007812 -16.523438 7.046875 -17.296875 9.671875 -17.296875 C 11.304688 -17.296875 12.742188 -16.941406 13.984375 -16.234375 C 15.234375 -15.523438 16.191406 -14.503906 16.859375 -13.171875 C 17.523438 -11.847656 17.859375 -10.296875 17.859375 -8.515625 Z M 17.859375 -8.515625 "/></g></g></g></svg>